<svg width="148" height="21" viewBox="0 0 148 21" fill="none" xmlns="http://www.w3.org/2000/svg">
<path d="M146.671 7.27442C144.437 7.27442 143.853 9.32758 143.853 11.9242V16.2519H141.585V5.10693H143.853V7.26074C144.256 5.85171 145.101 5.10693 146.671 5.10693H148V7.27442H146.671Z" fill="#000"/>
<path d="M129.42 10.0988C129.42 7.01909 132.352 3.9458 135.211 3.9458C137.988 3.9458 140.86 6.83793 140.86 9.63587C140.86 10.3901 140.84 10.1592 140.82 10.3001H131.708C131.789 12.5747 133.359 14.2454 135.392 14.2454C137.183 14.2454 138.311 13.4402 138.653 12.0513H140.981C140.659 14.0844 137.908 16.4129 135.392 16.4129C132.513 16.4129 129.42 13.1182 129.42 10.0988ZM131.789 9.13264H138.532C138.391 7.26064 137.143 6.11328 135.211 6.11328C133.359 6.11328 132.111 7.24051 131.789 9.13264Z" fill="#000"/>
<path d="M118.563 1.78516H120.831V4.76077H124.621L124.621 1.78516H126.89V4.76077H130.11V6.27394H126.89V12.212C126.89 13.3795 127.554 14.7309 128.58 14.7309H130.11V16.2515H127.601C125.769 16.2515 124.621 14.084 124.621 12.212V6.27394H120.831V12.212C120.831 13.3795 121.495 14.7309 122.522 14.7309H124.051V16.2515H121.542C119.71 16.2515 118.563 14.084 118.563 12.212V6.27394H117.389V4.76077H118.563V1.78516Z" fill="#000"/>
<path d="M115.309 9.70993C115.309 8.18012 114.222 7.11328 112.33 7.11328C110.76 7.11328 109.432 8.09961 109.351 9.28722H108.083C108.284 7.3347 110.217 5.9458 112.33 5.9458C114.987 5.9458 117 7.45548 117 9.70993V16.2518H115.309V14.4C114.705 15.6278 113.296 16.4129 111.666 16.4129C109.492 16.4129 108.103 15.2253 108.103 13.3533C108.103 11.4209 109.713 10.193 112.23 10.193H114.685C115.128 10.193 115.309 10.0119 115.309 9.70993ZM109.452 13.3533C109.452 14.5006 110.358 15.2454 111.767 15.2454C114.001 15.2454 115.309 13.8967 115.309 11.5618V11.2599H112.23C110.539 11.2599 109.452 12.065 109.452 13.3533Z" fill="#000"/>
<path d="M91.7371 16.2515V1.16113H94.6501L99.4401 13.5003L104.231 1.16113H107.143V16.2515H104.795V5.25456L100.084 16.2515H98.7961L94.0861 5.25456V16.2515H91.7371Z" fill="#000"/>
<path d="M84.7439 16.2514V2H86.0119V16.2514H84.7439Z" fill="#000"/>
<path d="M81.496 9.70993C81.496 8.18012 80.409 7.11328 78.517 7.11328C76.947 7.11328 75.618 8.09961 75.538 9.28722H74.27C74.471 7.3347 76.403 5.9458 78.517 5.9458C81.174 5.9458 82.764 7.45548 82.764 9.70993V16.2518H81.496V14.4C80.892 15.6278 79.483 16.4129 77.853 16.4129C75.679 16.4129 74.29 15.2253 74.29 13.3533C74.29 11.4209 75.9 10.193 78.416 10.193H80.872C81.315 10.193 81.496 10.0119 81.496 9.70993ZM75.638 13.3533C75.638 14.5006 76.544 15.2454 77.953 15.2454C80.187 15.2454 81.496 13.8967 81.496 11.5618V11.2599H78.416C76.725 11.2599 75.638 12.065 75.638 13.3533Z" fill="#000"/>
<path d="M68.7709 16.4129C65.5499 16.4129 63.9199 13.8364 63.9199 11.1794C63.9199 8.52232 65.5499 5.9458 68.7709 5.9458C70.9249 5.9458 72.9379 7.1938 73.2799 9.42813H72.0319C71.8309 8.09961 70.4419 7.11328 68.7709 7.11328C66.3559 7.11328 65.2479 8.98529 65.2479 11.1794C65.2479 13.3734 66.3759 15.2454 68.7709 15.2454C70.4419 15.2454 71.6289 14.4402 72.0319 13.1117H73.2399C72.8769 15.1447 71.3269 16.4129 68.7709 16.4129Z" fill="#000"/>
<path d="M61.038 16.2514V6.10633H62.306V16.2514H61.038ZM60.897 4.05317V2H62.427V4.05317H60.897Z" fill="#000"/>
<path d="M55.61 16.4129C53.315 16.4129 51.806 15.1447 51.645 13.0513H52.913C53.054 14.4805 54 15.2454 55.61 15.2454C57.019 15.2454 57.945 14.4402 57.945 13.5143C57.945 10.193 51.886 13.1318 51.886 8.72361C51.886 7.03277 53.295 5.9458 55.469 5.9458C57.623 5.9458 59.092 7.15354 59.213 8.98529H57.945C57.784 7.55612 56.355 7.11328 55.389 7.11328C54.08 7.11328 53.215 7.75741 53.215 8.72361C53.215 11.6625 59.273 8.84438 59.273 13.5143C59.273 15.2856 57.804 16.4129 55.61 16.4129Z" fill="#000"/>
<path d="M44.8841 20.3583L46.1321 16.4935L42.3081 6.10693H43.6361L46.7361 14.5812L49.8361 6.10693H51.1851L47.8231 15.2857L46.1121 20.3583H44.8841Z" fill="#000"/>
<path d="M33.0129 16.2514V2H34.2809V8.21988C34.8039 6.69007 36.0919 5.9453 37.7029 5.9453C39.9969 5.9453 41.4869 7.57575 41.4869 10.0919V16.2514H40.2189V10.2529C40.2189 8.36079 39.1519 7.11278 37.5219 7.11278C35.6289 7.11278 34.2809 8.64259 34.2809 10.7964V16.2514H33.0129Z" fill="#000"/>
<path d="M22 16.2515V2.16113H27.173C29.891 2.16113 31.581 3.81172 31.581 6.24734C31.581 8.68295 29.891 10.3335 27.173 10.3335H23.349V16.2515H22ZM23.349 9.08553H27.213C29.367 9.08553 30.152 7.73689 30.152 6.24734C30.152 4.75778 29.367 3.40914 27.213 3.40914H23.349V9.08553Z" fill="#000"/>
<path d="M14.2091 18.9884C11.9636 19.1988 10.086 16.5014 8.64666 15.1332C7.91889 20.5088 -0.00540815 19.9992 2.76975e-06 14.5461C0.00270823 12.2558 2.76975e-06 6.65863 2.76975e-06 4.44028C2.76975e-06 3.64267 0.213734 2.83952 0.614143 2.15823C1.37438 0.837183 2.84344 -0.0158174 4.33956 0.00079948C6.59321 0.00356896 12.0204 -0.00197 14.2091 0.00079948C19.5334 0.00079948 20.0394 8.12092 14.7772 8.85206L17.2744 11.4083C20.0177 14.0531 17.9589 19.1047 14.2091 18.9884ZM12.9997 15.7896C14.5473 17.4236 17.0174 14.8923 15.4238 13.3082L11.0951 8.87699H8.67371C8.67371 9.11793 8.67371 11.184 8.67371 11.3584L12.4154 15.1886L12.9997 15.7896ZM2.6216 14.5489C2.58642 16.8199 6.08459 16.8282 6.04942 14.5489V4.44028C6.07918 3.30756 4.91042 2.40748 3.85529 2.75643C3.80929 2.77028 3.76601 2.78413 3.72542 2.80075C3.06259 3.05277 2.60266 3.74791 2.6216 4.47351V14.5489ZM14.2091 6.19336C16.433 6.22936 16.4303 2.64842 14.2091 2.68443H8.33012C8.77652 3.64821 8.66289 5.14927 8.67101 6.19336C8.99025 6.19336 14.0522 6.19336 14.2091 6.19336Z" fill="#000"/>
</svg>
